<svg id="Layer_1" data-name="Layer 1" xmlns="http://www.w3.org/2000/svg" xmlns:xlink="http://www.w3.org/1999/xlink" viewBox="0 0 2000 2000"><defs><style>.cls-1{fill:none;}.cls-2{clip-path:url(#clip-path);}.cls-3{fill:#a50064;}.cls-4{fill:#fff;}</style><clipPath id="clip-path"><rect class="cls-1" x="-105.44" y="-2" width="2210.88" height="2004"/></clipPath></defs><g class="cls-2"><path class="cls-3" d="M251.22-.16m1267.6,2000H481.12C215.39,1999.84,0,1784.42,0,1518.69V481C0,215.25,215.39-.16,481.12-.16h1037.7C1784.55-.16,2000,215.25,2000,481v1037.7C2000,1784.42,1784.55,1999.84,1518.82,1999.84Z"/></g><path class="cls-4" d="M1441.51,300.5c-181.41,0-328.46,141.29-328.46,315.42s147.43,315.41,328.46,315.41S1770.37,790,1770.37,615.92,1623.31,300.5,1441.51,300.5Zm0,450A137.07,137.07,0,0,1,1302,616.11a139.76,139.76,0,0,1,279.13,0,137.07,137.07,0,0,1-139.57,134.38ZM1019.17,537.4V932.67H829.5V535.48a55.67,55.67,0,1,0-111.34,0V932.67H529.25V535.48a55.67,55.67,0,1,0-111.34,0V932.67H229.58V537.4C232.52,404,342.82,298,476.27,300.5a251.72,251.72,0,0,1,147.82,47.61A252.26,252.26,0,0,1,771.71,300.5c133.71-2.79,244.42,103.2,247.46,236.9Zm422.34,529.65c-181.41,0-328.46,141.1-328.46,315.42s147.43,316,328.46,316S1770,1557.36,1770,1383.23s-146.67-316.18-328.47-316.18Zm0,450a134.38,134.38,0,1,1,139.57-134.38,137.07,137.07,0,0,1-139.57,135.15Zm-422.34-212.32v394.5H829.5V1302.61a55.67,55.67,0,1,0-111.34,0v396.61H529.25V1302.61a55.67,55.67,0,1,0-111.34,0v396.61H229.58v-394.5a242.08,242.08,0,0,1,246.69-237.67,252.84,252.84,0,0,1,147.82,47.42,251.68,251.68,0,0,1,147.62-47.42,242.27,242.27,0,0,1,247.46,237.67Zm0,0"/></svg>