<svg id="Layer_1" data-name="Layer 1" xmlns="http://www.w3.org/2000/svg" viewBox="0 0 1019.59 1024.46"><defs><style>.cls-1{fill:#fff;}.cls-2{fill:#0fa8e0;}.cls-3{fill:#32b34a;}</style></defs><rect class="cls-1" y="4.87" width="1019.59" height="1019.59" rx="237.15"/><rect class="cls-1" x="290.97" y="537.09" width="495.02" height="312.7" rx="29.9"/><path class="cls-2" d="M930.51,56.77c-9.11,1.4-15.65,2.44-24.77,3.79Q855.61,68,805.48,75.31q-52.86,7.75-105.71,15.51L601,105.34Q551.09,112.68,501.2,120q-49.4,7.27-98.78,14.58-49.64,7.32-99.28,14.59Q257,156,210.78,162.79c-10.7,1.6-21.51,2.77-32,5.27-44.77,10.68-77.5,49.55-81.87,95.65-1.55,16.33,1.71,32.06,3.69,48,3.58,28.75,7.68,57.43,11.57,86.13q6.28,46.56,12.58,93.1,5.7,42.32,11.39,84.64,6.31,46.8,12.63,93.59,6.23,46.3,12.41,92.61,5.15,38.34,10.32,76.68,5.76,42.55,11.57,85.12,6.31,46.8,12.54,93.61c.15,1.11.09,1.1.26,3.73-10.59-2.77-20.38-3.48-29.76-6.75Q27.82,965.89,2.44,820.66A191.48,191.48,0,0,1,.11,788.09Q-.1,512.83,0,237.55C.06,121.15,85.29,21,199.71,3.06A234.63,234.63,0,0,1,235.51.17q274-.25,548,0C838.47.21,885.14,20.71,928.21,55"/><path class="cls-3" d="M696,849.17c18.39-44.61,36.6-88.77,54.8-132.94,5.46-13.24,11-26.45,16.3-39.75,3.28-8.23,3.73-16-3.54-23-9.23-8.75-23.26-7.67-30.35,2.87a40.85,40.85,0,0,0-4,8q-13.39,34.46-26.67,69c-.63,1.63-1.35,3.24-2.57,6.16-1.32-3.3-2.14-5.21-2.85-7.17Q685,699,673,665.66a52.39,52.39,0,0,0-3.78-8.68c-4.76-8.19-15.17-12-23.92-8.05-10.81,4.81-15.09,11.52-12.27,22a77.09,77.09,0,0,0,2.79,8.52q20.9,52.19,42,104.29a11.17,11.17,0,0,1-.2,9.94c-4.8,9.88-9.33,19.9-13.85,29.92-3.78,8.38-6,16.8,1.7,25.58-2.66.23-4.36.5-6.06.5q-168.23,0-336.45,0c-17.61,0-28.52-7.93-31.36-22.53a39.33,39.33,0,0,1-.52-7.45q0-126.21,0-252.4c0-18.87,11.25-30.13,30.25-30.13q217.22,0,434.44,0c19.24,0,30.26,10.88,30.27,30q.07,126.21,0,252.41c0,17.81-10,29.2-27.4,29.8-20.13.7-40.31.24-60.47.25A9.34,9.34,0,0,1,696,849.17ZM317.46,693q0,40,0,79.94a44.37,44.37,0,0,0,.8,9.92c1.94,8.25,6.25,14.74,15,17,14.86,3.78,28.16-6.15,28.44-21.48q.41-21.48,0-43c-.1-4.93,1.17-6.61,6.37-6.58,13.64.09,27.46.85,40.89-1,62-8.68,74.23-74.52,48.14-111.09-14.43-20.22-35.37-28.7-59.55-29.45-17.64-.54-35.31-.13-53-.13-21.1,0-27.14,6-27.16,26.95Q317.43,653.52,317.46,693ZM577,660.77c-8.2-4.5-15.26-10.1-23.28-12.44-20-5.82-39-2.49-55.81,10.27-40.38,30.7-40.64,97.94-.86,129.56,21.34,17,59.14,19.45,78.16-2.1.17-.19.62-.14,1.2-.27.62.82,1.31,1.71,2,2.63,6.52,9,16.34,12.47,26.29,9.31,9.1-2.88,15-11.46,15.05-22.44.09-29,0-58,0-86.95,0-5.67.11-11.33,0-17-.38-15.66-11.47-24.76-27-22.4C584.91,650.15,580.31,655.4,577,660.77Z"/><path class="cls-2" d="M363.51,450.88H370c27.15,0,54.31-.07,81.47.08a58.62,58.62,0,0,1,14.31,1.63c10.05,2.6,15,9.74,15.32,20.74.34,12.69-4,20.45-14.08,23.74a42,42,0,0,1-12.72,2.08q-64.23.21-128.46-.07a56.4,56.4,0,0,1-16.19-2.57c-15.22-4.7-22.43-19.17-16.76-34.12a65.17,65.17,0,0,1,9.44-16.33q48.26-62.52,96.86-124.75c1.79-2.3,3.48-4.69,6-8.14h-7c-25.16,0-50.32.29-75.47-.28a38.28,38.28,0,0,1-17.82-5.12c-8.12-4.81-10.82-14.72-8.29-23.78a23.15,23.15,0,0,1,20.17-16.9,118.85,118.85,0,0,1,13.47-.75q53.73-.07,107.47,0a89.94,89.94,0,0,1,16.9,1.26c19.49,3.77,28,20.63,17.8,37.6-9.3,15.52-20,30.25-31,44.67-24.63,32.34-49.8,64.27-74.73,96.38C365.8,447.43,365,448.68,363.51,450.88Z"/><path class="cls-2" d="M594.36,348.68c1.06-1.44,1.87-2.45,2.58-3.53,5.29-8,12.82-11.29,22.25-10.51,9.93.83,16.64,6.27,20.82,15a14.92,14.92,0,0,1,1.26,6.28q.08,58-.06,116c0,13.76-8.51,23.24-21.88,24.62-8.93.91-16.38-2.16-21.73-9.62-1-1.34-1.87-2.71-2.76-4-.56.16-.94.16-1.17.35-28.83,23.56-66.32,21.34-92.48-5.47-32.66-33.47-32-94.15,1.6-125.86,19.15-18.09,41.83-23.87,67.43-18C579.73,336,587.55,341.34,594.36,348.68Zm-68.12,67.55c.78,11.11,3.36,19.62,9.18,27.89,12.44,17.68,41,16.27,51.37-2.71a51.87,51.87,0,0,0,6.2-32.8c-2.15-15.11-12.29-27.54-24.73-30.26-17.13-3.74-32.4,4.38-38.31,20.93C528,404.68,527.44,410.56,526.24,416.23Z"/><path class="cls-2" d="M715.81,415.12c0-37.4,22.8-70.19,59-79.22,34.85-8.71,65.81-1.7,89.36,27.59,10.13,12.59,15.09,27.18,16.22,43.25,1.22,17.38-.29,34.35-7.91,50.22C860.29,482.28,840,497.07,812.3,501.1c-24.59,3.57-47.6-.75-67-17.27C725,466.59,715.53,444.26,715.81,415.12Zm83.8-37.4c-11.13,0-18.23,3.31-24.74,11.59-11.76,15-11.74,38.92,0,55.16,12.21,16.82,39.53,16,50.27-1.75,6.74-11.17,9.31-23.48,6.59-36.5C828,387.93,816.35,377.74,799.61,377.72Z"/><path class="cls-2" d="M655.07,370.8c0-33.81-.05-67.61,0-101.42,0-14.31,8.11-24,21.25-26a23.86,23.86,0,0,1,26.89,19.69,59.51,59.51,0,0,1,.66,8.95c0,65.94.12,131.89-.15,197.83a38.69,38.69,0,0,1-4.07,17.62c-5,9.29-16.49,12.89-27,10.1a23.42,23.42,0,0,1-17.48-22.39c-.32-11.15-.12-22.31-.12-33.47Q655.05,406.27,655.07,370.8Z"/><path class="cls-1" d="M317.46,693q0-39.48,0-79c0-21,6.06-27,27.16-27,17.66,0,35.33-.41,53,.14,24.18.74,45.12,9.22,59.55,29.45C483.23,653.26,471,719.12,409,727.81c-13.43,1.87-27.25,1.12-40.89,1-5.2,0-6.47,1.64-6.37,6.57q.43,21.48,0,43c-.28,15.33-13.58,25.26-28.44,21.48-8.79-2.23-13.1-8.72-15-17a44.41,44.41,0,0,1-.8-9.93Q317.4,733,317.46,693Zm44.39-33.44c0,8.48.23,17-.09,25.45-.19,4.67,1.06,6.54,6.05,6.3,8-.39,16-.06,23.95-.12,18.92-.13,30.82-11.53,31.82-30.4s-11.8-32.76-30.53-33.08c-8.65-.15-17.31.14-25.95-.12-4.25-.13-5.43,1.49-5.32,5.52C362,641.94,361.85,650.76,361.85,659.58Z"/><path class="cls-1" d="M577,660.8c3.33-5.37,7.93-10.62,15.78-11.82,15.48-2.36,26.57,6.73,27,22.4.14,5.66,0,11.33,0,17,0,29,.06,58,0,87,0,11-6,19.57-15.05,22.45-9.95,3.16-19.77-.33-26.29-9.31-.67-.92-1.36-1.81-2-2.63-.58.12-1,.08-1.2.27-19,21.55-56.82,19-78.16,2.09-39.78-31.62-39.52-98.87.86-129.58,16.79-12.76,35.84-16.09,55.81-10.27C561.72,650.69,568.78,656.3,577,660.8Zm-63,55.62a25.19,25.19,0,0,0-.15,12c1.17,5,2.26,9.87,4.27,14.33,4.73,10.51,13.21,16.31,25.21,16.43,12.37.13,21.62-5,27.19-16,6.66-13.14,6.72-26.7.64-40-5.12-11.19-14.45-16.94-26.65-17-11.79-.05-21.11,5.28-26,16.15A85.45,85.45,0,0,0,514,716.42Z"/><path class="cls-1" d="M526.24,416.23c1.2-5.67,1.78-11.55,3.71-17,5.91-16.55,21.18-24.67,38.31-20.93,12.44,2.72,22.58,15.15,24.73,30.26a51.87,51.87,0,0,1-6.2,32.8c-10.37,19-38.93,20.39-51.37,2.71C529.6,435.85,527,427.34,526.24,416.23Z"/><path class="cls-1" d="M799.61,377.72c16.74,0,28.34,10.21,32.17,28.5,2.72,13,.15,25.33-6.59,36.5-10.74,17.8-38.06,18.57-50.27,1.75-11.79-16.24-11.81-40.19,0-55.16C781.38,381,788.48,377.71,799.61,377.72Z"/><path class="cls-3" d="M361.85,659.58c0-8.82.16-17.64-.07-26.45-.11-4,1.07-5.65,5.32-5.52,8.64.26,17.3,0,25.95.12,18.73.32,31.54,14.26,30.53,33.08s-12.9,30.27-31.82,30.4c-8,.06-16-.27-23.95.12-5,.24-6.24-1.63-6.05-6.3C362.08,676.56,361.85,668.06,361.85,659.58Z"/><path class="cls-3" d="M513.9,728.66a26,26,0,0,1,.15-12.44,85.28,85.28,0,0,1,4.41-13.84c4.94-10.87,14.26-16.2,26-16.15,12.2,0,21.53,5.79,26.65,17,6.08,13.3,6,26.86-.64,40-5.57,11-14.82,16.12-27.19,16-12-.12-20.48-5.92-25.21-16.43C516.14,738.38,515.05,733.59,513.9,728.66Z"/></svg>