<svg viewBox="0 0 300 300" xmlns="http://www.w3.org/2000/svg" xmlns:xlink="http://www.w3.org/1999/xlink" style="width: 100%; height: 100%; background-color: transparent;"><svg fill="#d82d8b" xmlns="http://www.w3.org/2000/svg" width="300" height="300" viewBox="0 0 300 300"><path d="M224.88,93.12h19.39a5,5,0,0,1,5,5v18.73H254V98.12a9.68,9.68,0,0,0-9.68-9.68H224.88Z"/><path d="M50.73,116.85V98.12a5,5,0,0,1,5-5H73.8V88.44H55.73a9.68,9.68,0,0,0-9.68,9.68v18.73Z"/><path d="M73.8,291.67H55.73a5,5,0,0,1-5-5V267.94H46.05v18.73a9.68,9.68,0,0,0,9.68,9.68H73.8Z"/><path d="M249.27,267.94v18.73a5,5,0,0,1-5,5H224.88v4.68h19.39a9.68,9.68,0,0,0,9.68-9.68V267.94Z"/><path d="M244.75,3.65H55.45A9.25,9.25,0,0,0,46.2,12.9V54.46a9.25,9.25,0,0,0,9.25,9.26H126a2.32,2.32,0,0,1,1.64.67l20.74,20.74a2.33,2.33,0,0,0,3.28,0l20.75-20.74a2.28,2.28,0,0,1,1.64-.67h70.58a9.25,9.25,0,0,0,9.25-9.26V12.9A9.18,9.18,0,0,0,244.75,3.65Z"/><g transform="translate(54, 96.5)scale(0.64)" fill="none"><svg width="300" height="300"><style>.background-color{ fill: transparent; }.dot-color{ fill: #000000; }.corners-square-color-0-0{ fill: #000000; }.corners-dot-color-0-0{ fill: #000000; }.corners-square-color-1-0{ fill: #000000; }.corners-dot-color-1-0{ fill: #000000; }.corners-square-color-0-1{ fill: #000000; }.corners-dot-color-0-1{ fill: #000000; }</style><defs/><g class="dot-color"><path d="M 5 105v 10h 5a 5 5, 0, 0, 0, 0 -10" transform="rotate(-90,10,110)"/><path d="M 5 115v 10h 10a 10 10, 0, 0, 0, -10 -10" transform="rotate(180,10,120)"/><circle cx="10" cy="150" r="5" transform="rotate(0,10,150)"/><path d="M 5 185v 10h 10a 10 10, 0, 0, 0, -10 -10" transform="rotate(-90,10,190)"/><path d="M 5 195v 10h 10a 10 10, 0, 0, 0, -10 -10" transform="rotate(180,10,200)"/><rect x="15" y="115" width="10" height="10" transform="rotate(0,20,120)"/><circle cx="20" cy="160" r="5" transform="rotate(0,20,160)"/><path d="M 15 185v 10h 10a 10 10, 0, 0, 0, -10 -10" transform="rotate(0,20,190)"/><path d="M 15 195v 10h 10a 10 10, 0, 0, 0, -10 -10" transform="rotate(90,20,200)"/><path d="M 25 95v 10h 10a 10 10, 0, 0, 0, -10 -10" transform="rotate(-90,30,100)"/><rect x="25" y="105" width="10" height="10" transform="rotate(0,30,110)"/><path d="M 25 115v 10h 10a 10 10, 0, 0, 0, -10 -10" transform="rotate(90,30,120)"/><path d="M 25 135v 10h 5a 5 5, 0, 0, 0, 0 -10" transform="rotate(-90,30,140)"/><path d="M 25 145v 10h 5a 5 5, 0, 0, 0, 0 -10" transform="rotate(90,30,150)"/><path d="M 25 175v 10h 5a 5 5, 0, 0, 0, 0 -10" transform="rotate(180,30,180)"/><path d="M 35 85v 10h 5a 5 5, 0, 0, 0, 0 -10" transform="rotate(-90,40,90)"/><rect x="35" y="95" width="10" height="10" transform="rotate(0,40,100)"/><path d="M 35 105v 10h 10a 10 10, 0, 0, 0, -10 -10" transform="rotate(90,40,110)"/><path d="M 35 155v 10h 10a 10 10, 0, 0, 0, -10 -10" transform="rotate(-90,40,160)"/><rect x="35" y="165" width="10" height="10" transform="rotate(0,40,170)"/><rect x="35" y="175" width="10" height="10" transform="rotate(0,40,180)"/><rect x="35" y="185" width="10" height="10" transform="rotate(0,40,190)"/><path d="M 35 195v 10h 5a 5 5, 0, 0, 0, 0 -10" transform="rotate(90,40,200)"/><path d="M 45 95v 10h 5a 5 5, 0, 0, 0, 0 -10" transform="rotate(0,50,100)"/><circle cx="50" cy="120" r="5" transform="rotate(0,50,120)"/><circle cx="50" cy="140" r="5" transform="rotate(0,50,140)"/><path d="M 45 155v 10h 5a 5 5, 0, 0, 0, 0 -10" transform="rotate(0,50,160)"/><path d="M 45 175v 10h 5a 5 5, 0, 0, 0, 0 -10" transform="rotate(0,50,180)"/><path d="M 45 205v 10h 5a 5 5, 0, 0, 0, 0 -10" transform="rotate(180,50,210)"/><path d="M 55 85v 10h 5a 5 5, 0, 0, 0, 0 -10" transform="rotate(180,60,90)"/><path d="M 55 165v 10h 5a 5 5, 0, 0, 0, 0 -10" transform="rotate(180,60,170)"/><rect x="55" y="205" width="10" height="10" transform="rotate(0,60,210)"/><rect x="65" y="85" width="10" height="10" transform="rotate(0,70,90)"/><path d="M 65 105v 10h 5a 5 5, 0, 0, 0, 0 -10" transform="rotate(180,70,110)"/><path d="M 65 125v 10h 5a 5 5, 0, 0, 0, 0 -10" transform="rotate(180,70,130)"/><path d="M 65 145v 10h 5a 5 5, 0, 0, 0, 0 -10" transform="rotate(180,70,150)"/><rect x="65" y="165" width="10" height="10" transform="rotate(0,70,170)"/><path d="M 65 185v 10h 5a 5 5, 0, 0, 0, 0 -10" transform="rotate(180,70,190)"/><rect x="65" y="205" width="10" height="10" transform="rotate(0,70,210)"/><path d="M 75 85v 10h 5a 5 5, 0, 0, 0, 0 -10" transform="rotate(0,80,90)"/><path d="M 75 105v 10h 10a 10 10, 0, 0, 0, -10 -10" transform="rotate(0,80,110)"/><rect x="75" y="115" width="10" height="10" transform="rotate(0,80,120)"/><rect x="75" y="125" width="10" height="10" transform="rotate(0,80,130)"/><rect x="75" y="135" width="10" height="10" transform="rotate(0,80,140)"/><rect x="75" y="145" width="10" height="10" transform="rotate(0,80,150)"/><rect x="75" y="155" width="10" height="10" transform="rotate(0,80,160)"/><rect x="75" y="165" width="10" height="10" transform="rotate(0,80,170)"/><rect x="75" y="185" width="10" height="10" transform="rotate(0,80,190)"/><rect x="75" y="205" width="10" height="10" transform="rotate(0,80,210)"/><path d="M 85 15v 10h 5a 5 5, 0, 0, 0, 0 -10" transform="rotate(-90,90,20)"/><path d="M 85 25v 10h 5a 5 5, 0, 0, 0, 0 -10" transform="rotate(90,90,30)"/><circle cx="90" cy="70" r="5" transform="rotate(0,90,70)"/><rect x="85" y="115" width="10" height="10" transform="rotate(0,90,120)"/><rect x="85" y="155" width="10" height="10" transform="rotate(0,90,160)"/><rect x="85" y="165" width="10" height="10" transform="rotate(0,90,170)"/><rect x="85" y="175" width="10" height="10" transform="rotate(0,90,180)"/><rect x="85" y="185" width="10" height="10" transform="rotate(0,90,190)"/><rect x="85" y="195" width="10" height="10" transform="rotate(0,90,200)"/><path d="M 85 205v 10h 10a 10 10, 0, 0, 0, -10 -10" transform="rotate(90,90,210)"/><path d="M 85 225v 10h 10a 10 10, 0, 0, 0, -10 -10" transform="rotate(-90,90,230)"/><path d="M 85 235v 10h 10a 10 10, 0, 0, 0, -10 -10" transform="rotate(180,90,240)"/><path d="M 85 255v 10h 5a 5 5, 0, 0, 0, 0 -10" transform="rotate(180,90,260)"/><circle cx="100" cy="10" r="5" transform="rotate(0,100,10)"/><path d="M 95 35v 10h 10a 10 10, 0, 0, 0, -10 -10" transform="rotate(-90,100,40)"/><path d="M 95 45v 10h 10a 10 10, 0, 0, 0, -10 -10" transform="rotate(180,100,50)"/><circle cx="100" cy="80" r="5" transform="rotate(0,100,80)"/><path d="M 95 95v 10h 10a 10 10, 0, 0, 0, -10 -10" transform="rotate(-90,100,100)"/><rect x="95" y="105" width="10" height="10" transform="rotate(0,100,110)"/><rect x="95" y="115" width="10" height="10" transform="rotate(0,100,120)"/><path d="M 95 125v 10h 10a 10 10, 0, 0, 0, -10 -10" transform="rotate(180,100,130)"/><path d="M 95 145v 10h 5a 5 5, 0, 0, 0, 0 -10" transform="rotate(-90,100,150)"/><rect x="95" y="155" width="10" height="10" transform="rotate(0,100,160)"/><path d="M 95 165v 10h 10a 10 10, 0, 0, 0, -10 -10" transform="rotate(90,100,170)"/><rect x="95" y="185" width="10" height="10" transform="rotate(0,100,190)"/><path d="M 95 215v 10h 10a 10 10, 0, 0, 0, -10 -10" transform="rotate(-90,100,220)"/><rect x="95" y="225" width="10" height="10" transform="rotate(0,100,230)"/><rect x="95" y="235" width="10" height="10" transform="rotate(0,100,240)"/><path d="M 95 255v 10h 10a 10 10, 0, 0, 0, -10 -10" transform="rotate(0,100,260)"/><rect x="95" y="265" width="10" height="10" transform="rotate(0,100,270)"/><rect x="95" y="275" width="10" height="10" transform="rotate(0,100,280)"/><path d="M 95 285v 10h 10a 10 10, 0, 0, 0, -10 -10" transform="rotate(180,100,290)"/><path d="M 105 25v 10h 5a 5 5, 0, 0, 0, 0 -10" transform="rotate(-90,110,30)"/><rect x="105" y="35" width="10" height="10" transform="rotate(0,110,40)"/><path d="M 105 45v 10h 10a 10 10, 0, 0, 0, -10 -10" transform="rotate(90,110,50)"/><circle cx="110" cy="70" r="5" transform="rotate(0,110,70)"/><path d="M 105 85v 10h 5a 5 5, 0, 0, 0, 0 -10" transform="rotate(-90,110,90)"/><path d="M 105 95v 10h 10a 10 10, 0, 0, 0, -10 -10" transform="rotate(90,110,100)"/><path d="M 105 115v 10h 10a 10 10, 0, 0, 0, -10 -10" transform="rotate(0,110,120)"/><path d="M 105 125v 10h 10a 10 10, 0, 0, 0, -10 -10" transform="rotate(90,110,130)"/><path d="M 105 155v 10h 5a 5 5, 0, 0, 0, 0 -10" transform="rotate(0,110,160)"/><path d="M 105 175v 10h 5a 5 5, 0, 0, 0, 0 -10" transform="rotate(-90,110,180)"/><rect x="105" y="185" width="10" height="10" transform="rotate(0,110,190)"/><path d="M 105 195v 10h 10a 10 10, 0, 0, 0, -10 -10" transform="rotate(180,110,200)"/><path d="M 105 215v 10h 5a 5 5, 0, 0, 0, 0 -10" transform="rotate(0,110,220)"/><path d="M 105 235v 10h 10a 10 10, 0, 0, 0, -10 -10" transform="rotate(0,110,240)"/><path d="M 105 245v 10h 5a 5 5, 0, 0, 0, 0 -10" transform="rotate(90,110,250)"/><path d="M 105 285v 10h 5a 5 5, 0, 0, 0, 0 -10" transform="rotate(0,110,290)"/><circle cx="120" cy="20" r="5" transform="rotate(0,120,20)"/><circle cx="120" cy="80" r="5" transform="rotate(0,120,80)"/><path d="M 115 105v 10h 5a 5 5, 0, 0, 0, 0 -10" transform="rotate(180,120,110)"/><path d="M 115 135v 10h 5a 5 5, 0, 0, 0, 0 -10" transform="rotate(180,120,140)"/><circle cx="120" cy="170" r="5" transform="rotate(0,120,170)"/><path d="M 115 185v 10h 10a 10 10, 0, 0, 0, -10 -10" transform="rotate(0,120,190)"/><rect x="115" y="195" width="10" height="10" transform="rotate(0,120,200)"/><path d="M 115 225v 10h 5a 5 5, 0, 0, 0, 0 -10" transform="rotate(180,120,230)"/><circle cx="120" cy="260" r="5" transform="rotate(0,120,260)"/><circle cx="130" cy="40" r="5" transform="rotate(0,130,40)"/><path d="M 125 55v 10h 10a 10 10, 0, 0, 0, -10 -10" transform="rotate(-90,130,60)"/><path d="M 125 65v 10h 5a 5 5, 0, 0, 0, 0 -10" transform="rotate(90,130,70)"/><path d="M 125 85v 10h 5a 5 5, 0, 0, 0, 0 -10" transform="rotate(-90,130,90)"/><rect x="125" y="95" width="10" height="10" transform="rotate(0,130,100)"/><rect x="125" y="105" width="10" height="10" transform="rotate(0,130,110)"/><path d="M 125 115v 10h 5a 5 5, 0, 0, 0, 0 -10" transform="rotate(90,130,120)"/><path d="M 125 135v 10h 10a 10 10, 0, 0, 0, -10 -10" transform="rotate(0,130,140)"/><path d="M 125 145v 10h 10a 10 10, 0, 0, 0, -10 -10" transform="rotate(180,130,150)"/><rect x="125" y="195" width="10" height="10" transform="rotate(0,130,200)"/><rect x="125" y="205" width="10" height="10" transform="rotate(0,130,210)"/><rect x="125" y="215" width="10" height="10" transform="rotate(0,130,220)"/><rect x="125" y="225" width="10" height="10" transform="rotate(0,130,230)"/><circle cx="130" cy="280" r="5" transform="rotate(0,130,280)"/><circle cx="140" cy="30" r="5" transform="rotate(0,140,30)"/><path d="M 135 45v 10h 10a 10 10, 0, 0, 0, -10 -10" transform="rotate(-90,140,50)"/><path d="M 135 55v 10h 10a 10 10, 0, 0, 0, -10 -10" transform="rotate(90,140,60)"/><path d="M 135 125v 10h 5a 5 5, 0, 0, 0, 0 -10" transform="rotate(180,140,130)"/><path d="M 135 145v 10h 5a 5 5, 0, 0, 0, 0 -10" transform="rotate(0,140,150)"/><path d="M 135 165v 10h 10a 10 10, 0, 0, 0, -10 -10" transform="rotate(-90,140,170)"/><rect x="135" y="175" width="10" height="10" transform="rotate(0,140,180)"/><rect x="135" y="185" width="10" height="10" transform="rotate(0,140,190)"/><rect x="135" y="195" width="10" height="10" transform="rotate(0,140,200)"/><path d="M 135 205v 10h 10a 10 10, 0, 0, 0, -10 -10" transform="rotate(90,140,210)"/><rect x="135" y="225" width="10" height="10" transform="rotate(0,140,230)"/><path d="M 135 255v 10h 5a 5 5, 0, 0, 0, 0 -10" transform="rotate(180,140,260)"/><path d="M 135 285v 10h 5a 5 5, 0, 0, 0, 0 -10" transform="rotate(180,140,290)"/><path d="M 145 5v 10h 5a 5 5, 0, 0, 0, 0 -10" transform="rotate(180,150,10)"/><rect x="145" y="45" width="10" height="10" transform="rotate(0,150,50)"/><circle cx="150" cy="70" r="5" transform="rotate(0,150,70)"/><path d="M 145 105v 10h 5a 5 5, 0, 0, 0, 0 -10" transform="rotate(180,150,110)"/><path d="M 145 125v 10h 5a 5 5, 0, 0, 0, 0 -10" transform="rotate(0,150,130)"/><path d="M 145 155v 10h 10a 10 10, 0, 0, 0, -10 -10" transform="rotate(-90,150,160)"/><path d="M 145 165v 10h 10a 10 10, 0, 0, 0, -10 -10" transform="rotate(90,150,170)"/><path d="M 145 195v 10h 5a 5 5, 0, 0, 0, 0 -10" transform="rotate(0,150,200)"/><path d="M 145 225v 10h 5a 5 5, 0, 0, 0, 0 -10" transform="rotate(0,150,230)"/><rect x="145" y="255" width="10" height="10" transform="rotate(0,150,260)"/><rect x="145" y="265" width="10" height="10" transform="rotate(0,150,270)"/><rect x="145" y="275" width="10" height="10" transform="rotate(0,150,280)"/><path d="M 145 285v 10h 10a 10 10, 0, 0, 0, -10 -10" transform="rotate(90,150,290)"/><rect x="155" y="5" width="10" height="10" transform="rotate(0,160,10)"/><path d="M 155 35v 10h 10a 10 10, 0, 0, 0, -10 -10" transform="rotate(-90,160,40)"/><path d="M 155 45v 10h 10a 10 10, 0, 0, 0, -10 -10" transform="rotate(90,160,50)"/><path d="M 155 75v 10h 5a 5 5, 0, 0, 0, 0 -10" transform="rotate(-90,160,80)"/><path d="M 155 85v 10h 10a 10 10, 0, 0, 0, -10 -10" transform="rotate(180,160,90)"/><path d="M 155 105v 10h 5a 5 5, 0, 0, 0, 0 -10" transform="rotate(0,160,110)"/><circle cx="160" cy="140" r="5" transform="rotate(0,160,140)"/><path d="M 155 155v 10h 5a 5 5, 0, 0, 0, 0 -10" transform="rotate(0,160,160)"/><path d="M 155 175v 10h 5a 5 5, 0, 0, 0, 0 -10" transform="rotate(180,160,180)"/><path d="M 155 205v 10h 5a 5 5, 0, 0, 0, 0 -10" transform="rotate(-90,160,210)"/><path d="M 155 215v 10h 5a 5 5, 0, 0, 0, 0 -10" transform="rotate(90,160,220)"/><path d="M 155 255v 10h 5a 5 5, 0, 0, 0, 0 -10" transform="rotate(0,160,260)"/><path d="M 155 275v 10h 5a 5 5, 0, 0, 0, 0 -10" transform="rotate(0,160,280)"/><path d="M 165 5v 10h 5a 5 5, 0, 0, 0, 0 -10" transform="rotate(0,170,10)"/><path d="M 165 25v 10h 10a 10 10, 0, 0, 0, -10 -10" transform="rotate(-90,170,30)"/><rect x="165" y="35" width="10" height="10" transform="rotate(0,170,40)"/><path d="M 165 55v 10h 10a 10 10, 0, 0, 0, -10 -10" transform="rotate(-90,170,60)"/><path d="M 165 65v 10h 5a 5 5, 0, 0, 0, 0 -10" transform="rotate(90,170,70)"/><rect x="165" y="85" width="10" height="10" transform="rotate(0,170,90)"/><path d="M 165 175v 10h 5a 5 5, 0, 0, 0, 0 -10" transform="rotate(0,170,180)"/><path d="M 165 225v 10h 5a 5 5, 0, 0, 0, 0 -10" transform="rotate(180,170,230)"/><path d="M 175 15v 10h 10a 10 10, 0, 0, 0, -10 -10" transform="rotate(-90,180,20)"/><rect x="175" y="25" width="10" height="10" transform="rotate(0,180,30)"/><rect x="175" y="35" width="10" height="10" transform="rotate(0,180,40)"/><rect x="175" y="45" width="10" height="10" transform="rotate(0,180,50)"/><rect x="175" y="55" width="10" height="10" transform="rotate(0,180,60)"/><rect x="175" y="85" width="10" height="10" transform="rotate(0,180,90)"/><path d="M 175 105v 10h 5a 5 5, 0, 0, 0, 0 -10" transform="rotate(-90,180,110)"/><rect x="175" y="115" width="10" height="10" transform="rotate(0,180,120)"/><path d="M 175 125v 10h 10a 10 10, 0, 0, 0, -10 -10" transform="rotate(180,180,130)"/><path d="M 175 195v 10h 10a 10 10, 0, 0, 0, -10 -10" transform="rotate(-90,180,200)"/><path d="M 175 205v 10h 5a 5 5, 0, 0, 0, 0 -10" transform="rotate(90,180,210)"/><path d="M 175 225v 10h 10a 10 10, 0, 0, 0, -10 -10" transform="rotate(0,180,230)"/><path d="M 175 235v 10h 5a 5 5, 0, 0, 0, 0 -10" transform="rotate(90,180,240)"/><path d="M 175 285v 10h 5a 5 5, 0, 0, 0, 0 -10" transform="rotate(180,180,290)"/><path d="M 185 5v 10h 5a 5 5, 0, 0, 0, 0 -10" transform="rotate(-90,190,10)"/><path d="M 185 15v 10h 10a 10 10, 0, 0, 0, -10 -10" transform="rotate(90,190,20)"/><path d="M 185 35v 10h 10a 10 10, 0, 0, 0, -10 -10" transform="rotate(0,190,40)"/><rect x="185" y="45" width="10" height="10" transform="rotate(0,190,50)"/><rect x="185" y="55" width="10" height="10" transform="rotate(0,190,60)"/><path d="M 185 65v 10h 5a 5 5, 0, 0, 0, 0 -10" transform="rotate(90,190,70)"/><path d="M 185 85v 10h 5a 5 5, 0, 0, 0, 0 -10" transform="rotate(0,190,90)"/><rect x="185" y="115" width="10" height="10" transform="rotate(0,190,120)"/><path d="M 185 125v 10h 10a 10 10, 0, 0, 0, -10 -10" transform="rotate(90,190,130)"/><path d="M 185 145v 10h 5a 5 5, 0, 0, 0, 0 -10" transform="rotate(-90,190,150)"/><path d="M 185 155v 10h 5a 5 5, 0, 0, 0, 0 -10" transform="rotate(90,190,160)"/><path d="M 185 185v 10h 5a 5 5, 0, 0, 0, 0 -10" transform="rotate(-90,190,190)"/><rect x="185" y="195" width="10" height="10" transform="rotate(0,190,200)"/><path d="M 185 255v 10h 10a 10 10, 0, 0, 0, -10 -10" transform="rotate(-90,190,260)"/><path d="M 185 265v 10h 5a 5 5, 0, 0, 0, 0 -10" transform="rotate(90,190,270)"/><rect x="185" y="285" width="10" height="10" transform="rotate(0,190,290)"/><circle cx="200" cy="30" r="5" transform="rotate(0,200,30)"/><path d="M 195 55v 10h 5a 5 5, 0, 0, 0, 0 -10" transform="rotate(0,200,60)"/><circle cx="200" cy="80" r="5" transform="rotate(0,200,80)"/><path d="M 195 95v 10h 10a 10 10, 0, 0, 0, -10 -10" transform="rotate(-90,200,100)"/><rect x="195" y="105" width="10" height="10" transform="rotate(0,200,110)"/><path d="M 195 115v 10h 10a 10 10, 0, 0, 0, -10 -10" transform="rotate(90,200,120)"/><path d="M 195 135v 10h 5a 5 5, 0, 0, 0, 0 -10" transform="rotate(180,200,140)"/><rect x="195" y="195" width="10" height="10" transform="rotate(0,200,200)"/><path d="M 195 215v 10h 10a 10 10, 0, 0, 0, -10 -10" transform="rotate(-90,200,220)"/><path d="M 195 225v 10h 10a 10 10, 0, 0, 0, -10 -10" transform="rotate(180,200,230)"/><rect x="195" y="255" width="10" height="10" transform="rotate(0,200,260)"/><path d="M 195 285v 10h 5a 5 5, 0, 0, 0, 0 -10" transform="rotate(0,200,290)"/><path d="M 205 5v 10h 5a 5 5, 0, 0, 0, 0 -10" transform="rotate(-90,210,10)"/><path d="M 205 15v 10h 5a 5 5, 0, 0, 0, 0 -10" transform="rotate(90,210,20)"/><circle cx="210" cy="40" r="5" transform="rotate(0,210,40)"/><circle cx="210" cy="70" r="5" transform="rotate(0,210,70)"/><path d="M 205 95v 10h 5a 5 5, 0, 0, 0, 0 -10" transform="rotate(0,210,100)"/><path d="M 205 125v 10h 5a 5 5, 0, 0, 0, 0 -10" transform="rotate(-90,210,130)"/><rect x="205" y="135" width="10" height="10" transform="rotate(0,210,140)"/><path d="M 205 155v 10h 10a 10 10, 0, 0, 0, -10 -10" transform="rotate(-90,210,160)"/><path d="M 205 165v 10h 10a 10 10, 0, 0, 0, -10 -10" transform="rotate(180,210,170)"/><path d="M 205 185v 10h 5a 5 5, 0, 0, 0, 0 -10" transform="rotate(-90,210,190)"/><rect x="205" y="195" width="10" height="10" transform="rotate(0,210,200)"/><rect x="205" y="205" width="10" height="10" transform="rotate(0,210,210)"/><rect x="205" y="215" width="10" height="10" transform="rotate(0,210,220)"/><rect x="205" y="225" width="10" height="10" transform="rotate(0,210,230)"/><rect x="205" y="235" width="10" height="10" transform="rotate(0,210,240)"/><rect x="205" y="245" width="10" height="10" transform="rotate(0,210,250)"/><rect x="205" y="255" width="10" height="10" transform="rotate(0,210,260)"/><circle cx="210" cy="280" r="5" transform="rotate(0,210,280)"/><circle cx="220" cy="90" r="5" transform="rotate(0,220,90)"/><circle cx="220" cy="110" r="5" transform="rotate(0,220,110)"/><path d="M 215 135v 10h 5a 5 5, 0, 0, 0, 0 -10" transform="rotate(0,220,140)"/><rect x="215" y="155" width="10" height="10" transform="rotate(0,220,160)"/><path d="M 215 165v 10h 10a 10 10, 0, 0, 0, -10 -10" transform="rotate(90,220,170)"/><rect x="215" y="205" width="10" height="10" transform="rotate(0,220,210)"/><rect x="215" y="245" width="10" height="10" transform="rotate(0,220,250)"/><rect x="215" y="255" width="10" height="10" transform="rotate(0,220,260)"/><path d="M 215 285v 10h 5a 5 5, 0, 0, 0, 0 -10" transform="rotate(180,220,290)"/><circle cx="230" cy="120" r="5" transform="rotate(0,230,120)"/><rect x="225" y="155" width="10" height="10" transform="rotate(0,230,160)"/><path d="M 225 175v 10h 5a 5 5, 0, 0, 0, 0 -10" transform="rotate(-90,230,180)"/><path d="M 225 185v 10h 10a 10 10, 0, 0, 0, -10 -10" transform="rotate(180,230,190)"/><rect x="225" y="205" width="10" height="10" transform="rotate(0,230,210)"/><circle cx="230" cy="230" r="5" transform="rotate(0,230,230)"/><rect x="225" y="245" width="10" height="10" transform="rotate(0,230,250)"/><rect x="225" y="255" width="10" height="10" transform="rotate(0,230,260)"/><path d="M 225 265v 10h 5a 5 5, 0, 0, 0, 0 -10" transform="rotate(90,230,270)"/><rect x="225" y="285" width="10" height="10" transform="rotate(0,230,290)"/><circle cx="240" cy="100" r="5" transform="rotate(0,240,100)"/><path d="M 235 125v 10h 10a 10 10, 0, 0, 0, -10 -10" transform="rotate(-90,240,130)"/><path d="M 235 135v 10h 10a 10 10, 0, 0, 0, -10 -10" transform="rotate(180,240,140)"/><rect x="235" y="155" width="10" height="10" transform="rotate(0,240,160)"/><rect x="235" y="185" width="10" height="10" transform="rotate(0,240,190)"/><rect x="235" y="195" width="10" height="10" transform="rotate(0,240,200)"/><rect x="235" y="205" width="10" height="10" transform="rotate(0,240,210)"/><rect x="235" y="245" width="10" height="10" transform="rotate(0,240,250)"/><path d="M 235 255v 10h 10a 10 10, 0, 0, 0, -10 -10" transform="rotate(90,240,260)"/><path d="M 235 275v 10h 5a 5 5, 0, 0, 0, 0 -10" transform="rotate(-90,240,280)"/><path d="M 235 285v 10h 10a 10 10, 0, 0, 0, -10 -10" transform="rotate(90,240,290)"/><path d="M 245 125v 10h 10a 10 10, 0, 0, 0, -10 -10" transform="rotate(0,250,130)"/><rect x="245" y="135" width="10" height="10" transform="rotate(0,250,140)"/><rect x="245" y="145" width="10" height="10" transform="rotate(0,250,150)"/><rect x="245" y="155" width="10" height="10" transform="rotate(0,250,160)"/><rect x="245" y="165" width="10" height="10" transform="rotate(0,250,170)"/><rect x="245" y="175" width="10" height="10" transform="rotate(0,250,180)"/><rect x="245" y="185" width="10" height="10" transform="rotate(0,250,190)"/><rect x="245" y="195" width="10" height="10" transform="rotate(0,250,200)"/><rect x="245" y="205" width="10" height="10" transform="rotate(0,250,210)"/><rect x="245" y="215" width="10" height="10" transform="rotate(0,250,220)"/><rect x="245" y="225" width="10" height="10" transform="rotate(0,250,230)"/><rect x="245" y="235" width="10" height="10" transform="rotate(0,250,240)"/><rect x="245" y="245" width="10" height="10" transform="rotate(0,250,250)"/><path d="M 255 115v 10h 5a 5 5, 0, 0, 0, 0 -10" transform="rotate(180,260,120)"/><rect x="255" y="165" width="10" height="10" transform="rotate(0,260,170)"/><rect x="255" y="175" width="10" height="10" transform="rotate(0,260,180)"/><rect x="255" y="185" width="10" height="10" transform="rotate(0,260,190)"/><rect x="255" y="195" width="10" height="10" transform="rotate(0,260,200)"/><path d="M 255 205v 10h 10a 10 10, 0, 0, 0, -10 -10" transform="rotate(90,260,210)"/><path d="M 255 235v 10h 10a 10 10, 0, 0, 0, -10 -10" transform="rotate(0,260,240)"/><rect x="255" y="245" width="10" height="10" transform="rotate(0,260,250)"/><path d="M 255 275v 10h 5a 5 5, 0, 0, 0, 0 -10" transform="rotate(180,260,280)"/><path d="M 265 85v 10h 5a 5 5, 0, 0, 0, 0 -10" transform="rotate(180,270,90)"/><path d="M 265 105v 10h 10a 10 10, 0, 0, 0, -10 -10" transform="rotate(-90,270,110)"/><path d="M 265 115v 10h 10a 10 10, 0, 0, 0, -10 -10" transform="rotate(90,270,120)"/><rect x="265" y="165" width="10" height="10" transform="rotate(0,270,170)"/><path d="M 265 215v 10h 5a 5 5, 0, 0, 0, 0 -10" transform="rotate(180,270,220)"/><path d="M 265 245v 10h 5a 5 5, 0, 0, 0, 0 -10" transform="rotate(0,270,250)"/><path d="M 265 265v 10h 5a 5 5, 0, 0, 0, 0 -10" transform="rotate(-90,270,270)"/><rect x="265" y="275" width="10" height="10" transform="rotate(0,270,280)"/><path d="M 265 285v 10h 5a 5 5, 0, 0, 0, 0 -10" transform="rotate(90,270,290)"/><path d="M 275 85v 10h 5a 5 5, 0, 0, 0, 0 -10" transform="rotate(0,280,90)"/><path d="M 275 105v 10h 5a 5 5, 0, 0, 0, 0 -10" transform="rotate(0,280,110)"/><path d="M 275 145v 10h 5a 5 5, 0, 0, 0, 0 -10" transform="rotate(-90,280,150)"/><rect x="275" y="155" width="10" height="10" transform="rotate(0,280,160)"/><rect x="275" y="165" width="10" height="10" transform="rotate(0,280,170)"/><path d="M 275 195v 10h 5a 5 5, 0, 0, 0, 0 -10" transform="rotate(-90,280,200)"/><rect x="275" y="205" width="10" height="10" transform="rotate(0,280,210)"/><rect x="275" y="215" width="10" height="10" transform="rotate(0,280,220)"/><path d="M 275 225v 10h 5a 5 5, 0, 0, 0, 0 -10" transform="rotate(90,280,230)"/><circle cx="280" cy="260" r="5" transform="rotate(0,280,260)"/><circle cx="290" cy="120" r="5" transform="rotate(0,290,120)"/><circle cx="290" cy="140" r="5" transform="rotate(0,290,140)"/><path d="M 285 165v 10h 5a 5 5, 0, 0, 0, 0 -10" transform="rotate(0,290,170)"/><path d="M 285 205v 10h 10a 10 10, 0, 0, 0, -10 -10" transform="rotate(0,290,210)"/><path d="M 285 215v 10h 10a 10 10, 0, 0, 0, -10 -10" transform="rotate(90,290,220)"/><path d="M 285 235v 10h 5a 5 5, 0, 0, 0, 0 -10" transform="rotate(-90,290,240)"/><path d="M 285 245v 10h 5a 5 5, 0, 0, 0, 0 -10" transform="rotate(90,290,250)"/><circle cx="290" cy="270" r="5" transform="rotate(0,290,270)"/><circle cx="290" cy="290" r="5" transform="rotate(0,290,290)"/></g><g class="corners-square-color-0-0"><path d="M 5 5v 10h 10a 10 10, 0, 0, 0, -10 -10" transform="rotate(-90,10,10)"/><rect x="5" y="15" width="10" height="10" transform="rotate(0,10,20)"/><rect x="5" y="25" width="10" height="10" transform="rotate(0,10,30)"/><rect x="5" y="35" width="10" height="10" transform="rotate(0,10,40)"/><rect x="5" y="45" width="10" height="10" transform="rotate(0,10,50)"/><rect x="5" y="55" width="10" height="10" transform="rotate(0,10,60)"/><path d="M 5 65v 10h 10a 10 10, 0, 0, 0, -10 -10" transform="rotate(180,10,70)"/><rect x="15" y="5" width="10" height="10" transform="rotate(0,20,10)"/><rect x="15" y="65" width="10" height="10" transform="rotate(0,20,70)"/><rect x="25" y="5" width="10" height="10" transform="rotate(0,30,10)"/><rect x="25" y="65" width="10" height="10" transform="rotate(0,30,70)"/><rect x="35" y="5" width="10" height="10" transform="rotate(0,40,10)"/><rect x="35" y="65" width="10" height="10" transform="rotate(0,40,70)"/><rect x="45" y="5" width="10" height="10" transform="rotate(0,50,10)"/><rect x="45" y="65" width="10" height="10" transform="rotate(0,50,70)"/><rect x="55" y="5" width="10" height="10" transform="rotate(0,60,10)"/><rect x="55" y="65" width="10" height="10" transform="rotate(0,60,70)"/><path d="M 65 5v 10h 10a 10 10, 0, 0, 0, -10 -10" transform="rotate(0,70,10)"/><rect x="65" y="15" width="10" height="10" transform="rotate(0,70,20)"/><rect x="65" y="25" width="10" height="10" transform="rotate(0,70,30)"/><rect x="65" y="35" width="10" height="10" transform="rotate(0,70,40)"/><rect x="65" y="45" width="10" height="10" transform="rotate(0,70,50)"/><rect x="65" y="55" width="10" height="10" transform="rotate(0,70,60)"/><path d="M 65 65v 10h 10a 10 10, 0, 0, 0, -10 -10" transform="rotate(90,70,70)"/></g><g class="corners-dot-color-0-0"><path d="M 25 25v 10h 10a 10 10, 0, 0, 0, -10 -10" transform="rotate(-90,30,30)"/><rect x="25" y="35" width="10" height="10" transform="rotate(0,30,40)"/><path d="M 25 45v 10h 10a 10 10, 0, 0, 0, -10 -10" transform="rotate(180,30,50)"/><rect x="35" y="25" width="10" height="10" transform="rotate(0,40,30)"/><rect x="35" y="35" width="10" height="10" transform="rotate(0,40,40)"/><rect x="35" y="45" width="10" height="10" transform="rotate(0,40,50)"/><path d="M 45 25v 10h 10a 10 10, 0, 0, 0, -10 -10" transform="rotate(0,50,30)"/><rect x="45" y="35" width="10" height="10" transform="rotate(0,50,40)"/><path d="M 45 45v 10h 10a 10 10, 0, 0, 0, -10 -10" transform="rotate(90,50,50)"/></g><g class="corners-square-color-1-0"><path d="M 225 5v 10h 10a 10 10, 0, 0, 0, -10 -10" transform="rotate(-90,230,10)"/><rect x="225" y="15" width="10" height="10" transform="rotate(0,230,20)"/><rect x="225" y="25" width="10" height="10" transform="rotate(0,230,30)"/><rect x="225" y="35" width="10" height="10" transform="rotate(0,230,40)"/><rect x="225" y="45" width="10" height="10" transform="rotate(0,230,50)"/><rect x="225" y="55" width="10" height="10" transform="rotate(0,230,60)"/><path d="M 225 65v 10h 10a 10 10, 0, 0, 0, -10 -10" transform="rotate(180,230,70)"/><rect x="235" y="5" width="10" height="10" transform="rotate(0,240,10)"/><rect x="235" y="65" width="10" height="10" transform="rotate(0,240,70)"/><rect x="245" y="5" width="10" height="10" transform="rotate(0,250,10)"/><rect x="245" y="65" width="10" height="10" transform="rotate(0,250,70)"/><rect x="255" y="5" width="10" height="10" transform="rotate(0,260,10)"/><rect x="255" y="65" width="10" height="10" transform="rotate(0,260,70)"/><rect x="265" y="5" width="10" height="10" transform="rotate(0,270,10)"/><rect x="265" y="65" width="10" height="10" transform="rotate(0,270,70)"/><rect x="275" y="5" width="10" height="10" transform="rotate(0,280,10)"/><rect x="275" y="65" width="10" height="10" transform="rotate(0,280,70)"/><path d="M 285 5v 10h 10a 10 10, 0, 0, 0, -10 -10" transform="rotate(0,290,10)"/><rect x="285" y="15" width="10" height="10" transform="rotate(0,290,20)"/><rect x="285" y="25" width="10" height="10" transform="rotate(0,290,30)"/><rect x="285" y="35" width="10" height="10" transform="rotate(0,290,40)"/><rect x="285" y="45" width="10" height="10" transform="rotate(0,290,50)"/><rect x="285" y="55" width="10" height="10" transform="rotate(0,290,60)"/><path d="M 285 65v 10h 10a 10 10, 0, 0, 0, -10 -10" transform="rotate(90,290,70)"/></g><g class="corners-dot-color-1-0"><path d="M 245 25v 10h 10a 10 10, 0, 0, 0, -10 -10" transform="rotate(-90,250,30)"/><rect x="245" y="35" width="10" height="10" transform="rotate(0,250,40)"/><path d="M 245 45v 10h 10a 10 10, 0, 0, 0, -10 -10" transform="rotate(180,250,50)"/><rect x="255" y="25" width="10" height="10" transform="rotate(0,260,30)"/><rect x="255" y="35" width="10" height="10" transform="rotate(0,260,40)"/><rect x="255" y="45" width="10" height="10" transform="rotate(0,260,50)"/><path d="M 265 25v 10h 10a 10 10, 0, 0, 0, -10 -10" transform="rotate(0,270,30)"/><rect x="265" y="35" width="10" height="10" transform="rotate(0,270,40)"/><path d="M 265 45v 10h 10a 10 10, 0, 0, 0, -10 -10" transform="rotate(90,270,50)"/></g><g class="corners-square-color-0-1"><path d="M 5 225v 10h 10a 10 10, 0, 0, 0, -10 -10" transform="rotate(-90,10,230)"/><rect x="5" y="235" width="10" height="10" transform="rotate(0,10,240)"/><rect x="5" y="245" width="10" height="10" transform="rotate(0,10,250)"/><rect x="5" y="255" width="10" height="10" transform="rotate(0,10,260)"/><rect x="5" y="265" width="10" height="10" transform="rotate(0,10,270)"/><rect x="5" y="275" width="10" height="10" transform="rotate(0,10,280)"/><path d="M 5 285v 10h 10a 10 10, 0, 0, 0, -10 -10" transform="rotate(180,10,290)"/><rect x="15" y="225" width="10" height="10" transform="rotate(0,20,230)"/><rect x="15" y="285" width="10" height="10" transform="rotate(0,20,290)"/><rect x="25" y="225" width="10" height="10" transform="rotate(0,30,230)"/><rect x="25" y="285" width="10" height="10" transform="rotate(0,30,290)"/><rect x="35" y="225" width="10" height="10" transform="rotate(0,40,230)"/><rect x="35" y="285" width="10" height="10" transform="rotate(0,40,290)"/><rect x="45" y="225" width="10" height="10" transform="rotate(0,50,230)"/><rect x="45" y="285" width="10" height="10" transform="rotate(0,50,290)"/><rect x="55" y="225" width="10" height="10" transform="rotate(0,60,230)"/><rect x="55" y="285" width="10" height="10" transform="rotate(0,60,290)"/><path d="M 65 225v 10h 10a 10 10, 0, 0, 0, -10 -10" transform="rotate(0,70,230)"/><rect x="65" y="235" width="10" height="10" transform="rotate(0,70,240)"/><rect x="65" y="245" width="10" height="10" transform="rotate(0,70,250)"/><rect x="65" y="255" width="10" height="10" transform="rotate(0,70,260)"/><rect x="65" y="265" width="10" height="10" transform="rotate(0,70,270)"/><rect x="65" y="275" width="10" height="10" transform="rotate(0,70,280)"/><path d="M 65 285v 10h 10a 10 10, 0, 0, 0, -10 -10" transform="rotate(90,70,290)"/></g><g class="corners-dot-color-0-1"><path d="M 25 245v 10h 10a 10 10, 0, 0, 0, -10 -10" transform="rotate(-90,30,250)"/><rect x="25" y="255" width="10" height="10" transform="rotate(0,30,260)"/><path d="M 25 265v 10h 10a 10 10, 0, 0, 0, -10 -10" transform="rotate(180,30,270)"/><rect x="35" y="245" width="10" height="10" transform="rotate(0,40,250)"/><rect x="35" y="255" width="10" height="10" transform="rotate(0,40,260)"/><rect x="35" y="265" width="10" height="10" transform="rotate(0,40,270)"/><path d="M 45 245v 10h 10a 10 10, 0, 0, 0, -10 -10" transform="rotate(0,50,250)"/><rect x="45" y="255" width="10" height="10" transform="rotate(0,50,260)"/><path d="M 45 265v 10h 10a 10 10, 0, 0, 0, -10 -10" transform="rotate(90,50,270)"/></g></svg></g></svg><g transform="translate(150,50)"><style>
               .small567{
                  fill:#ffccc7;
                  font-size:50px;
                  font-family: Courier New, sans-serif;
                  }</style><text x="0" y="0" text-anchor="middle" class="small567">Momo</text></g></svg>